# xmcd
# Copyright (C) 1995-1998 Ti Kan
#
# Track frame offsets:
#       150
#       1671
#       4120
#       8146
#       18856
#       22407
#       24662
#       28897
#       35548
#       40395
#       47910
#       55531
#       58884
#       60545
#       65262
#       72427
#       78592
#       87109
#       90356
#       99071
#       103540
#       107613
#       116395
#       123038
#
# Disc length: 1769 seconds
#
# Revision: 0
# Processed by: cddbd v1.5.2PL0 Copyright (c) Steve Scherf et al.
# Submitted via: CD-Transfer v1.0
#
DISCID=2206e718
DTITLE=Al-P.maffay - Interview
DYEAR=08
DGENRE=
TTITLE0=Zum Titel
TTITLE1=Zumtitelsong Ewig
TTITLE2=Zur Rockmusik (Eine Lebenseinstellung?)
TTITLE3=Zum Vergleich Zu Begegnungen 2
TTITLE4=Zu Carl Carlton Der Wieder An Bord Ist
TTITLE5=Zu Schnee Der Auf Rosen Fällt
TTITLE6=Zum Inhalt Von Schnee...und Dem Grundthema Des Albums
TTITLE7=Themen Des Albums
TTITLE8=Album Mit Studiofeeling
TTITLE9=Neuer Produzent Patrick Berger
TTITLE10=Keine Tour Ohne Neues Album" Rente Gibt Es Nicht
TTITLE11=Inspiration Springsteen, Liebeserklärung An Die Musik
TTITLE12=Zur Ersten Single Die Liebe Lebt
TTITLE13=Ist Maffay Ein Gefühlsmensch, Ein Romantiker?
TTITLE14=Zum Engagement Für Arme Kinder
TTITLE15=Über Träume, Realismus Und Glaube
TTITLE16=Zum Song: Meine Welt
TTITLE17=Zum Song Meine Musik
TTITLE18=Über Seine Helden Der Musik
TTITLE19=Zur Klassik Und Den Einfluss Transsylvaniens
TTITLE20=40 Jkahre Peter Maffay - Zu Seiner Biografie
TTITLE21=Olympische Spiele In China
TTITLE22=Verhältnis Dalai Lama Und Tibet
TTITLE23=Über Seine Produkte In China Und Seine Meinung Zum Chinesischen Staat
EXTD=
EXTT0=
EXTT1=
EXTT2=
EXTT3=
EXTT4=
EXTT5=
EXTT6=
EXTT7=
EXTT8=
EXTT9=
EXTT10=
EXTT11=
EXTT12=
EXTT13=
EXTT14=
EXTT15=
EXTT16=
EXTT17=
EXTT18=
EXTT19=
EXTT20=
EXTT21=
EXTT22=
EXTT23=
PLAYORDER=
